<svg xmlns="http://www.w3.org/2000/svg" viewBox="0 0 520 220" width="520" height="220" style="font-family:monospace">
<rect width="520" height="220" fill="#fafafa"/>
<rect x="0" y="0" width="20" height="20" fill="#f5f5f5" stroke="#e0e0e0" stroke-width="0.5"/>
<rect x="20" y="0" width="20" height="20" fill="#f5f5f5" stroke="#e0e0e0" stroke-width="0.5"/>
<rect x="40" y="0" width="20" height="20" fill="#f5f5f5" stroke="#e0e0e0" stroke-width="0.5"/>
<rect x="60" y="0" width="20" height="20" fill="#f5f5f5" stroke="#e0e0e0" stroke-width="0.5"/>
<rect x="80" y="0" width="20" height="20" fill="#f5f5f5" stroke="#e0e0e0" stroke-width="0.5"/>
<rect x="100" y="0" width="20" height="20" fill="#f5f5f5" stroke="#e0e0e0" stroke-width="0.5"/>
<rect x="120" y="0" width="20" height="20" fill="#f5f5f5" stroke="#e0e0e0" stroke-width="0.5"/>
<rect x="140" y="0" width="20" height="20" fill="#f5f5f5" stroke="#e0e0e0" stroke-width="0.5"/>
<rect x="160" y="0" width="20" height="20" fill="#f5f5f5" stroke="#e0e0e0" stroke-width="0.5"/>
<rect x="180" y="0" width="20" height="20" fill="#f5f5f5" stroke="#e0e0e0" stroke-width="0.5"/>
<rect x="200" y="0" width="20" height="20" fill="#f5f5f5" stroke="#e0e0e0" stroke-width="0.5"/>
<rect x="220" y="0" width="20" height="20" fill="#f5f5f5" stroke="#e0e0e0" stroke-width="0.5"/>
<rect x="240" y="0" width="20" height="20" fill="#f5f5f5" stroke="#e0e0e0" stroke-width="0.5"/>
<rect x="260" y="0" width="20" height="20" fill="#f5f5f5" stroke="#e0e0e0" stroke-width="0.5"/>
<rect x="280" y="0" width="20" height="20" fill="#f5f5f5" stroke="#e0e0e0" stroke-width="0.5"/>
<rect x="300" y="0" width="20" height="20" fill="#f5f5f5" stroke="#e0e0e0" stroke-width="0.5"/>
<rect x="320" y="0" width="20" height="20" fill="#f5f5f5" stroke="#e0e0e0" stroke-width="0.5"/>
<rect x="340" y="0" width="20" height="20" fill="#f5f5f5" stroke="#e0e0e0" stroke-width="0.5"/>
<rect x="360" y="0" width="20" height="20" fill="#f5f5f5" stroke="#e0e0e0" stroke-width="0.5"/>
<rect x="380" y="0" width="20" height="20" fill="#f5f5f5" stroke="#e0e0e0" stroke-width="0.5"/>
<rect x="400" y="0" width="20" height="20" fill="#f5f5f5" stroke="#e0e0e0" stroke-width="0.5"/>
<rect x="420" y="0" width="20" height="20" fill="#f5f5f5" stroke="#e0e0e0" stroke-width="0.5"/>
<rect x="440" y="0" width="20" height="20" fill="#f5f5f5" stroke="#e0e0e0" stroke-width="0.5"/>
<rect x="460" y="0" width="20" height="20" fill="#f5f5f5" stroke="#e0e0e0" stroke-width="0.5"/>
<rect x="480" y="0" width="20" height="20" fill="#f5f5f5" stroke="#e0e0e0" stroke-width="0.5"/>
<rect x="500" y="0" width="20" height="20" fill="#f5f5f5" stroke="#e0e0e0" stroke-width="0.5"/>
<rect x="0" y="20" width="20" height="20" fill="#f5f5f5" stroke="#e0e0e0" stroke-width="0.5"/>
<rect x="20" y="20" width="20" height="20" fill="#f5f5f5" stroke="#e0e0e0" stroke-width="0.5"/>
<rect x="40" y="20" width="20" height="20" fill="#f5f5f5" stroke="#e0e0e0" stroke-width="0.5"/>
<rect x="60" y="20" width="20" height="20" fill="#f5f5f5" stroke="#e0e0e0" stroke-width="0.5"/>
<rect x="80" y="20" width="20" height="20" fill="#f5f5f5" stroke="#e0e0e0" stroke-width="0.5"/>
<rect x="100" y="20" width="20" height="20" fill="#f5f5f5" stroke="#e0e0e0" stroke-width="0.5"/>
<rect x="120" y="20" width="20" height="20" fill="#f5f5f5" stroke="#e0e0e0" stroke-width="0.5"/>
<rect x="140" y="20" width="20" height="20" fill="#f5f5f5" stroke="#e0e0e0" stroke-width="0.5"/>
<rect x="160" y="20" width="20" height="20" fill="#f5f5f5" stroke="#e0e0e0" stroke-width="0.5"/>
<rect x="180" y="20" width="20" height="20" fill="#f5f5f5" stroke="#e0e0e0" stroke-width="0.5"/>
<rect x="200" y="20" width="20" height="20" fill="#f5f5f5" stroke="#e0e0e0" stroke-width="0.5"/>
<rect x="220" y="20" width="20" height="20" fill="#f5f5f5" stroke="#e0e0e0" stroke-width="0.5"/>
<rect x="240" y="20" width="20" height="20" fill="#f5f5f5" stroke="#e0e0e0" stroke-width="0.5"/>
<rect x="260" y="20" width="20" height="20" fill="#f5f5f5" stroke="#e0e0e0" stroke-width="0.5"/>
<rect x="280" y="20" width="20" height="20" fill="#f5f5f5" stroke="#e0e0e0" stroke-width="0.5"/>
<rect x="300" y="20" width="20" height="20" fill="#f5f5f5" stroke="#e0e0e0" stroke-width="0.5"/>
<rect x="320" y="20" width="20" height="20" fill="#f5f5f5" stroke="#e0e0e0" stroke-width="0.5"/>
<rect x="340" y="20" width="20" height="20" fill="#f5f5f5" stroke="#e0e0e0" stroke-width="0.5"/>
<rect x="360" y="20" width="20" height="20" fill="#f5f5f5" stroke="#e0e0e0" stroke-width="0.5"/>
<rect x="380" y="20" width="20" height="20" fill="#f5f5f5" stroke="#e0e0e0" stroke-width="0.5"/>
<rect x="400" y="20" width="20" height="20" fill="#f5f5f5" stroke="#e0e0e0" stroke-width="0.5"/>
<rect x="420" y="20" width="20" height="20" fill="#f5f5f5" stroke="#e0e0e0" stroke-width="0.5"/>
<rect x="440" y="20" width="20" height="20" fill="#f5f5f5" stroke="#e0e0e0" stroke-width="0.5"/>
<rect x="460" y="20" width="20" height="20" fill="#f5f5f5" stroke="#e0e0e0" stroke-width="0.5"/>
<rect x="480" y="20" width="20" height="20" fill="#f5f5f5" stroke="#e0e0e0" stroke-width="0.5"/>
<rect x="500" y="20" width="20" height="20" fill="#f5f5f5" stroke="#e0e0e0" stroke-width="0.5"/>
<rect x="0" y="40" width="20" height="20" fill="#f5f5f5" stroke="#e0e0e0" stroke-width="0.5"/>
<rect x="20" y="40" width="20" height="20" fill="#f5f5f5" stroke="#e0e0e0" stroke-width="0.5"/>
<rect x="40" y="40" width="20" height="20" fill="#f5f5f5" stroke="#e0e0e0" stroke-width="0.5"/>
<rect x="60" y="40" width="20" height="20" fill="#f5f5f5" stroke="#e0e0e0" stroke-width="0.5"/>
<rect x="80" y="40" width="20" height="20" fill="#f5f5f5" stroke="#e0e0e0" stroke-width="0.5"/>
<rect x="100" y="40" width="20" height="20" fill="#f5f5f5" stroke="#e0e0e0" stroke-width="0.5"/>
<rect x="120" y="40" width="20" height="20" fill="#f5f5f5" stroke="#e0e0e0" stroke-width="0.5"/>
<rect x="140" y="40" width="20" height="20" fill="#f5f5f5" stroke="#e0e0e0" stroke-width="0.5"/>
<rect x="160" y="40" width="20" height="20" fill="#f5f5f5" stroke="#e0e0e0" stroke-width="0.5"/>
<rect x="180" y="40" width="20" height="20" fill="#f5f5f5" stroke="#e0e0e0" stroke-width="0.5"/>
<rect x="200" y="40" width="20" height="20" fill="#f5f5f5" stroke="#e0e0e0" stroke-width="0.5"/>
<rect x="220" y="40" width="20" height="20" fill="#f5f5f5" stroke="#e0e0e0" stroke-width="0.5"/>
<rect x="240" y="40" width="20" height="20" fill="#f5f5f5" stroke="#e0e0e0" stroke-width="0.5"/>
<rect x="260" y="40" width="20" height="20" fill="#f5f5f5" stroke="#e0e0e0" stroke-width="0.5"/>
<rect x="280" y="40" width="20" height="20" fill="#f5f5f5" stroke="#e0e0e0" stroke-width="0.5"/>
<rect x="300" y="40" width="20" height="20" fill="#f5f5f5" stroke="#e0e0e0" stroke-width="0.5"/>
<rect x="320" y="40" width="20" height="20" fill="#f5f5f5" stroke="#e0e0e0" stroke-width="0.5"/>
<rect x="340" y="40" width="20" height="20" fill="#f5f5f5" stroke="#e0e0e0" stroke-width="0.5"/>
<rect x="360" y="40" width="20" height="20" fill="#f5f5f5" stroke="#e0e0e0" stroke-width="0.5"/>
<rect x="380" y="40" width="20" height="20" fill="#f5f5f5" stroke="#e0e0e0" stroke-width="0.5"/>
<rect x="400" y="40" width="20" height="20" fill="#f5f5f5" stroke="#e0e0e0" stroke-width="0.5"/>
<rect x="420" y="40" width="20" height="20" fill="#f5f5f5" stroke="#e0e0e0" stroke-width="0.5"/>
<rect x="440" y="40" width="20" height="20" fill="#f5f5f5" stroke="#e0e0e0" stroke-width="0.5"/>
<rect x="460" y="40" width="20" height="20" fill="#f5f5f5" stroke="#e0e0e0" stroke-width="0.5"/>
<rect x="480" y="40" width="20" height="20" fill="#f5f5f5" stroke="#e0e0e0" stroke-width="0.5"/>
<rect x="500" y="40" width="20" height="20" fill="#f5f5f5" stroke="#e0e0e0" stroke-width="0.5"/>
<rect x="0" y="60" width="20" height="20" fill="#f5f5f5" stroke="#e0e0e0" stroke-width="0.5"/>
<rect x="20" y="60" width="20" height="20" fill="#f5f5f5" stroke="#e0e0e0" stroke-width="0.5"/>
<rect x="40" y="60" width="20" height="20" fill="#3b82f6" stroke="#3b82f6" stroke-width="0.5"/>
<rect x="60" y="60" width="20" height="20" fill="#3b82f6" stroke="#3b82f6" stroke-width="0.5"/>
<rect x="80" y="60" width="20" height="20" fill="#3b82f6" stroke="#3b82f6" stroke-width="0.5"/>
<rect x="100" y="60" width="20" height="20" fill="#3b82f6" stroke="#3b82f6" stroke-width="0.5"/>
<rect x="120" y="60" width="20" height="20" fill="#3b82f6" stroke="#3b82f6" stroke-width="0.5"/>
<rect x="140" y="60" width="20" height="20" fill="#f5f5f5" stroke="#e0e0e0" stroke-width="0.5"/>
<rect x="160" y="60" width="20" height="20" fill="#f5f5f5" stroke="#e0e0e0" stroke-width="0.5"/>
<rect x="180" y="60" width="20" height="20" fill="#f5f5f5" stroke="#e0e0e0" stroke-width="0.5"/>
<rect x="200" y="60" width="20" height="20" fill="#f5f5f5" stroke="#e0e0e0" stroke-width="0.5"/>
<rect x="220" y="60" width="20" height="20" fill="#f5f5f5" stroke="#e0e0e0" stroke-width="0.5"/>
<rect x="240" y="60" width="20" height="20" fill="#f5f5f5" stroke="#e0e0e0" stroke-width="0.5"/>
<rect x="260" y="60" width="20" height="20" fill="#f5f5f5" stroke="#e0e0e0" stroke-width="0.5"/>
<rect x="280" y="60" width="20" height="20" fill="#f5f5f5" stroke="#e0e0e0" stroke-width="0.5"/>
<rect x="300" y="60" width="20" height="20" fill="#f5f5f5" stroke="#e0e0e0" stroke-width="0.5"/>
<rect x="320" y="60" width="20" height="20" fill="#f5f5f5" stroke="#e0e0e0" stroke-width="0.5"/>
<rect x="340" y="60" width="20" height="20" fill="#f5f5f5" stroke="#e0e0e0" stroke-width="0.5"/>
<rect x="360" y="60" width="20" height="20" fill="#ef4444" stroke="#ef4444" stroke-width="0.5"/>
<rect x="380" y="60" width="20" height="20" fill="#ef4444" stroke="#ef4444" stroke-width="0.5"/>
<rect x="400" y="60" width="20" height="20" fill="#ef4444" stroke="#ef4444" stroke-width="0.5"/>
<rect x="420" y="60" width="20" height="20" fill="#ef4444" stroke="#ef4444" stroke-width="0.5"/>
<rect x="440" y="60" width="20" height="20" fill="#ef4444" stroke="#ef4444" stroke-width="0.5"/>
<rect x="460" y="60" width="20" height="20" fill="#f5f5f5" stroke="#e0e0e0" stroke-width="0.5"/>
<rect x="480" y="60" width="20" height="20" fill="#f5f5f5" stroke="#e0e0e0" stroke-width="0.5"/>
<rect x="500" y="60" width="20" height="20" fill="#f5f5f5" stroke="#e0e0e0" stroke-width="0.5"/>
<rect x="0" y="80" width="20" height="20" fill="#f5f5f5" stroke="#e0e0e0" stroke-width="0.5"/>
<rect x="20" y="80" width="20" height="20" fill="#f5f5f5" stroke="#e0e0e0" stroke-width="0.5"/>
<rect x="40" y="80" width="20" height="20" fill="#3b82f6" stroke="#3b82f6" stroke-width="0.5"/>
<rect x="60" y="80" width="20" height="20" fill="#3b82f6" stroke="#3b82f6" stroke-width="0.5"/>
<rect x="80" y="80" width="20" height="20" fill="#3b82f6" stroke="#3b82f6" stroke-width="0.5"/>
<rect x="100" y="80" width="20" height="20" fill="#3b82f6" stroke="#3b82f6" stroke-width="0.5"/>
<rect x="120" y="80" width="20" height="20" fill="#3b82f6" stroke="#3b82f6" stroke-width="0.5"/>
<rect x="140" y="80" width="20" height="20" fill="#e5e5e5" stroke="#d0d0d0" stroke-width="0.5"/>
<rect x="160" y="80" width="20" height="20" fill="#e5e5e5" stroke="#d0d0d0" stroke-width="0.5"/>
<rect x="180" y="80" width="20" height="20" fill="#f5f5f5" stroke="#e0e0e0" stroke-width="0.5"/>
<rect x="200" y="80" width="20" height="20" fill="#f5f5f5" stroke="#e0e0e0" stroke-width="0.5"/>
<rect x="220" y="80" width="20" height="20" fill="#f5f5f5" stroke="#e0e0e0" stroke-width="0.5"/>
<rect x="240" y="80" width="20" height="20" fill="#f5f5f5" stroke="#e0e0e0" stroke-width="0.5"/>
<rect x="260" y="80" width="20" height="20" fill="#f5f5f5" stroke="#e0e0e0" stroke-width="0.5"/>
<rect x="280" y="80" width="20" height="20" fill="#f5f5f5" stroke="#e0e0e0" stroke-width="0.5"/>
<rect x="300" y="80" width="20" height="20" fill="#f5f5f5" stroke="#e0e0e0" stroke-width="0.5"/>
<rect x="320" y="80" width="20" height="20" fill="#e5e5e5" stroke="#d0d0d0" stroke-width="0.5"/>
<rect x="340" y="80" width="20" height="20" fill="#e5e5e5" stroke="#d0d0d0" stroke-width="0.5"/>
<rect x="360" y="80" width="20" height="20" fill="#ef4444" stroke="#ef4444" stroke-width="0.5"/>
<rect x="380" y="80" width="20" height="20" fill="#ef4444" stroke="#ef4444" stroke-width="0.5"/>
<rect x="400" y="80" width="20" height="20" fill="#ef4444" stroke="#ef4444" stroke-width="0.5"/>
<rect x="420" y="80" width="20" height="20" fill="#ef4444" stroke="#ef4444" stroke-width="0.5"/>
<rect x="440" y="80" width="20" height="20" fill="#ef4444" stroke="#ef4444" stroke-width="0.5"/>
<rect x="460" y="80" width="20" height="20" fill="#f5f5f5" stroke="#e0e0e0" stroke-width="0.5"/>
<rect x="480" y="80" width="20" height="20" fill="#f5f5f5" stroke="#e0e0e0" stroke-width="0.5"/>
<rect x="500" y="80" width="20" height="20" fill="#f5f5f5" stroke="#e0e0e0" stroke-width="0.5"/>
<rect x="0" y="100" width="20" height="20" fill="#f5f5f5" stroke="#e0e0e0" stroke-width="0.5"/>
<rect x="20" y="100" width="20" height="20" fill="#f5f5f5" stroke="#e0e0e0" stroke-width="0.5"/>
<rect x="40" y="100" width="20" height="20" fill="#3b82f6" stroke="#3b82f6" stroke-width="0.5"/>
<rect x="60" y="100" width="20" height="20" fill="#3b82f6" stroke="#3b82f6" stroke-width="0.5"/>
<rect x="80" y="100" width="20" height="20" fill="#3b82f6" stroke="#3b82f6" stroke-width="0.5"/>
<text x="90" y="110" text-anchor="middle" dominant-baseline="central" fill="white" font-size="9" font-weight="bold">A</text>
<rect x="100" y="100" width="20" height="20" fill="#3b82f6" stroke="#3b82f6" stroke-width="0.5"/>
<rect x="120" y="100" width="20" height="20" fill="#3b82f6" stroke="#3b82f6" stroke-width="0.5"/>
<rect x="140" y="100" width="20" height="20" fill="#3b82f670" stroke="#3b82f6" stroke-width="1.5"/>
<text x="150" y="110" text-anchor="middle" dominant-baseline="central" fill="#333" font-size="7">B</text>
<rect x="160" y="100" width="20" height="20" fill="#93c5fd" stroke="#d0d0d0" stroke-width="0.5"/>
<rect x="180" y="100" width="20" height="20" fill="#93c5fd" stroke="#d0d0d0" stroke-width="0.5"/>
<rect x="200" y="100" width="20" height="20" fill="#93c5fd" stroke="#d0d0d0" stroke-width="0.5"/>
<rect x="220" y="100" width="20" height="20" fill="#93c5fd" stroke="#d0d0d0" stroke-width="0.5"/>
<rect x="240" y="100" width="20" height="20" fill="#93c5fd" stroke="#d0d0d0" stroke-width="0.5"/>
<rect x="260" y="100" width="20" height="20" fill="#93c5fd" stroke="#d0d0d0" stroke-width="0.5"/>
<rect x="280" y="100" width="20" height="20" fill="#93c5fd" stroke="#d0d0d0" stroke-width="0.5"/>
<rect x="300" y="100" width="20" height="20" fill="#93c5fd" stroke="#d0d0d0" stroke-width="0.5"/>
<rect x="320" y="100" width="20" height="20" fill="#93c5fd" stroke="#d0d0d0" stroke-width="0.5"/>
<rect x="340" y="100" width="20" height="20" fill="#ef444470" stroke="#ef4444" stroke-width="1.5"/>
<text x="350" y="110" text-anchor="middle" dominant-baseline="central" fill="#333" font-size="7">A</text>
<rect x="360" y="100" width="20" height="20" fill="#ef4444" stroke="#ef4444" stroke-width="0.5"/>
<rect x="380" y="100" width="20" height="20" fill="#ef4444" stroke="#ef4444" stroke-width="0.5"/>
<rect x="400" y="100" width="20" height="20" fill="#ef4444" stroke="#ef4444" stroke-width="0.5"/>
<text x="410" y="110" text-anchor="middle" dominant-baseline="central" fill="white" font-size="9" font-weight="bold">B</text>
<rect x="420" y="100" width="20" height="20" fill="#ef4444" stroke="#ef4444" stroke-width="0.5"/>
<rect x="440" y="100" width="20" height="20" fill="#ef4444" stroke="#ef4444" stroke-width="0.5"/>
<rect x="460" y="100" width="20" height="20" fill="#f5f5f5" stroke="#e0e0e0" stroke-width="0.5"/>
<rect x="480" y="100" width="20" height="20" fill="#f5f5f5" stroke="#e0e0e0" stroke-width="0.5"/>
<rect x="500" y="100" width="20" height="20" fill="#f5f5f5" stroke="#e0e0e0" stroke-width="0.5"/>
<rect x="0" y="120" width="20" height="20" fill="#f5f5f5" stroke="#e0e0e0" stroke-width="0.5"/>
<rect x="20" y="120" width="20" height="20" fill="#f5f5f5" stroke="#e0e0e0" stroke-width="0.5"/>
<rect x="40" y="120" width="20" height="20" fill="#3b82f6" stroke="#3b82f6" stroke-width="0.5"/>
<rect x="60" y="120" width="20" height="20" fill="#3b82f6" stroke="#3b82f6" stroke-width="0.5"/>
<rect x="80" y="120" width="20" height="20" fill="#3b82f6" stroke="#3b82f6" stroke-width="0.5"/>
<rect x="100" y="120" width="20" height="20" fill="#3b82f6" stroke="#3b82f6" stroke-width="0.5"/>
<rect x="120" y="120" width="20" height="20" fill="#3b82f6" stroke="#3b82f6" stroke-width="0.5"/>
<rect x="140" y="120" width="20" height="20" fill="#e5e5e5" stroke="#d0d0d0" stroke-width="0.5"/>
<rect x="160" y="120" width="20" height="20" fill="#e5e5e5" stroke="#d0d0d0" stroke-width="0.5"/>
<rect x="180" y="120" width="20" height="20" fill="#f5f5f5" stroke="#e0e0e0" stroke-width="0.5"/>
<rect x="200" y="120" width="20" height="20" fill="#f5f5f5" stroke="#e0e0e0" stroke-width="0.5"/>
<rect x="220" y="120" width="20" height="20" fill="#f5f5f5" stroke="#e0e0e0" stroke-width="0.5"/>
<rect x="240" y="120" width="20" height="20" fill="#f5f5f5" stroke="#e0e0e0" stroke-width="0.5"/>
<rect x="260" y="120" width="20" height="20" fill="#f5f5f5" stroke="#e0e0e0" stroke-width="0.5"/>
<rect x="280" y="120" width="20" height="20" fill="#f5f5f5" stroke="#e0e0e0" stroke-width="0.5"/>
<rect x="300" y="120" width="20" height="20" fill="#f5f5f5" stroke="#e0e0e0" stroke-width="0.5"/>
<rect x="320" y="120" width="20" height="20" fill="#e5e5e5" stroke="#d0d0d0" stroke-width="0.5"/>
<rect x="340" y="120" width="20" height="20" fill="#e5e5e5" stroke="#d0d0d0" stroke-width="0.5"/>
<rect x="360" y="120" width="20" height="20" fill="#ef4444" stroke="#ef4444" stroke-width="0.5"/>
<rect x="380" y="120" width="20" height="20" fill="#ef4444" stroke="#ef4444" stroke-width="0.5"/>
<rect x="400" y="120" width="20" height="20" fill="#ef4444" stroke="#ef4444" stroke-width="0.5"/>
<rect x="420" y="120" width="20" height="20" fill="#ef4444" stroke="#ef4444" stroke-width="0.5"/>
<rect x="440" y="120" width="20" height="20" fill="#ef4444" stroke="#ef4444" stroke-width="0.5"/>
<rect x="460" y="120" width="20" height="20" fill="#f5f5f5" stroke="#e0e0e0" stroke-width="0.5"/>
<rect x="480" y="120" width="20" height="20" fill="#f5f5f5" stroke="#e0e0e0" stroke-width="0.5"/>
<rect x="500" y="120" width="20" height="20" fill="#f5f5f5" stroke="#e0e0e0" stroke-width="0.5"/>
<rect x="0" y="140" width="20" height="20" fill="#f5f5f5" stroke="#e0e0e0" stroke-width="0.5"/>
<rect x="20" y="140" width="20" height="20" fill="#f5f5f5" stroke="#e0e0e0" stroke-width="0.5"/>
<rect x="40" y="140" width="20" height="20" fill="#3b82f6" stroke="#3b82f6" stroke-width="0.5"/>
<rect x="60" y="140" width="20" height="20" fill="#3b82f6" stroke="#3b82f6" stroke-width="0.5"/>
<rect x="80" y="140" width="20" height="20" fill="#3b82f6" stroke="#3b82f6" stroke-width="0.5"/>
<rect x="100" y="140" width="20" height="20" fill="#3b82f6" stroke="#3b82f6" stroke-width="0.5"/>
<rect x="120" y="140" width="20" height="20" fill="#3b82f6" stroke="#3b82f6" stroke-width="0.5"/>
<rect x="140" y="140" width="20" height="20" fill="#f5f5f5" stroke="#e0e0e0" stroke-width="0.5"/>
<rect x="160" y="140" width="20" height="20" fill="#f5f5f5" stroke="#e0e0e0" stroke-width="0.5"/>
<rect x="180" y="140" width="20" height="20" fill="#f5f5f5" stroke="#e0e0e0" stroke-width="0.5"/>
<rect x="200" y="140" width="20" height="20" fill="#f5f5f5" stroke="#e0e0e0" stroke-width="0.5"/>
<rect x="220" y="140" width="20" height="20" fill="#f5f5f5" stroke="#e0e0e0" stroke-width="0.5"/>
<rect x="240" y="140" width="20" height="20" fill="#f5f5f5" stroke="#e0e0e0" stroke-width="0.5"/>
<rect x="260" y="140" width="20" height="20" fill="#f5f5f5" stroke="#e0e0e0" stroke-width="0.5"/>
<rect x="280" y="140" width="20" height="20" fill="#f5f5f5" stroke="#e0e0e0" stroke-width="0.5"/>
<rect x="300" y="140" width="20" height="20" fill="#f5f5f5" stroke="#e0e0e0" stroke-width="0.5"/>
<rect x="320" y="140" width="20" height="20" fill="#f5f5f5" stroke="#e0e0e0" stroke-width="0.5"/>
<rect x="340" y="140" width="20" height="20" fill="#f5f5f5" stroke="#e0e0e0" stroke-width="0.5"/>
<rect x="360" y="140" width="20" height="20" fill="#ef4444" stroke="#ef4444" stroke-width="0.5"/>
<rect x="380" y="140" width="20" height="20" fill="#ef4444" stroke="#ef4444" stroke-width="0.5"/>
<rect x="400" y="140" width="20" height="20" fill="#ef4444" stroke="#ef4444" stroke-width="0.5"/>
<rect x="420" y="140" width="20" height="20" fill="#ef4444" stroke="#ef4444" stroke-width="0.5"/>
<rect x="440" y="140" width="20" height="20" fill="#ef4444" stroke="#ef4444" stroke-width="0.5"/>
<rect x="460" y="140" width="20" height="20" fill="#f5f5f5" stroke="#e0e0e0" stroke-width="0.5"/>
<rect x="480" y="140" width="20" height="20" fill="#f5f5f5" stroke="#e0e0e0" stroke-width="0.5"/>
<rect x="500" y="140" width="20" height="20" fill="#f5f5f5" stroke="#e0e0e0" stroke-width="0.5"/>
<rect x="0" y="160" width="20" height="20" fill="#f5f5f5" stroke="#e0e0e0" stroke-width="0.5"/>
<rect x="20" y="160" width="20" height="20" fill="#f5f5f5" stroke="#e0e0e0" stroke-width="0.5"/>
<rect x="40" y="160" width="20" height="20" fill="#f5f5f5" stroke="#e0e0e0" stroke-width="0.5"/>
<rect x="60" y="160" width="20" height="20" fill="#f5f5f5" stroke="#e0e0e0" stroke-width="0.5"/>
<rect x="80" y="160" width="20" height="20" fill="#f5f5f5" stroke="#e0e0e0" stroke-width="0.5"/>
<rect x="100" y="160" width="20" height="20" fill="#f5f5f5" stroke="#e0e0e0" stroke-width="0.5"/>
<rect x="120" y="160" width="20" height="20" fill="#f5f5f5" stroke="#e0e0e0" stroke-width="0.5"/>
<rect x="140" y="160" width="20" height="20" fill="#f5f5f5" stroke="#e0e0e0" stroke-width="0.5"/>
<rect x="160" y="160" width="20" height="20" fill="#f5f5f5" stroke="#e0e0e0" stroke-width="0.5"/>
<rect x="180" y="160" width="20" height="20" fill="#f5f5f5" stroke="#e0e0e0" stroke-width="0.5"/>
<rect x="200" y="160" width="20" height="20" fill="#f5f5f5" stroke="#e0e0e0" stroke-width="0.5"/>
<rect x="220" y="160" width="20" height="20" fill="#f5f5f5" stroke="#e0e0e0" stroke-width="0.5"/>
<rect x="240" y="160" width="20" height="20" fill="#f5f5f5" stroke="#e0e0e0" stroke-width="0.5"/>
<rect x="260" y="160" width="20" height="20" fill="#f5f5f5" stroke="#e0e0e0" stroke-width="0.5"/>
<rect x="280" y="160" width="20" height="20" fill="#f5f5f5" stroke="#e0e0e0" stroke-width="0.5"/>
<rect x="300" y="160" width="20" height="20" fill="#f5f5f5" stroke="#e0e0e0" stroke-width="0.5"/>
<rect x="320" y="160" width="20" height="20" fill="#f5f5f5" stroke="#e0e0e0" stroke-width="0.5"/>
<rect x="340" y="160" width="20" height="20" fill="#f5f5f5" stroke="#e0e0e0" stroke-width="0.5"/>
<rect x="360" y="160" width="20" height="20" fill="#f5f5f5" stroke="#e0e0e0" stroke-width="0.5"/>
<rect x="380" y="160" width="20" height="20" fill="#f5f5f5" stroke="#e0e0e0" stroke-width="0.5"/>
<rect x="400" y="160" width="20" height="20" fill="#f5f5f5" stroke="#e0e0e0" stroke-width="0.5"/>
<rect x="420" y="160" width="20" height="20" fill="#f5f5f5" stroke="#e0e0e0" stroke-width="0.5"/>
<rect x="440" y="160" width="20" height="20" fill="#f5f5f5" stroke="#e0e0e0" stroke-width="0.5"/>
<rect x="460" y="160" width="20" height="20" fill="#f5f5f5" stroke="#e0e0e0" stroke-width="0.5"/>
<rect x="480" y="160" width="20" height="20" fill="#f5f5f5" stroke="#e0e0e0" stroke-width="0.5"/>
<rect x="500" y="160" width="20" height="20" fill="#f5f5f5" stroke="#e0e0e0" stroke-width="0.5"/>
<rect x="0" y="180" width="20" height="20" fill="#f5f5f5" stroke="#e0e0e0" stroke-width="0.5"/>
<rect x="20" y="180" width="20" height="20" fill="#f5f5f5" stroke="#e0e0e0" stroke-width="0.5"/>
<rect x="40" y="180" width="20" height="20" fill="#f5f5f5" stroke="#e0e0e0" stroke-width="0.5"/>
<rect x="60" y="180" width="20" height="20" fill="#f5f5f5" stroke="#e0e0e0" stroke-width="0.5"/>
<rect x="80" y="180" width="20" height="20" fill="#f5f5f5" stroke="#e0e0e0" stroke-width="0.5"/>
<rect x="100" y="180" width="20" height="20" fill="#f5f5f5" stroke="#e0e0e0" stroke-width="0.5"/>
<rect x="120" y="180" width="20" height="20" fill="#f5f5f5" stroke="#e0e0e0" stroke-width="0.5"/>
<rect x="140" y="180" width="20" height="20" fill="#f5f5f5" stroke="#e0e0e0" stroke-width="0.5"/>
<rect x="160" y="180" width="20" height="20" fill="#f5f5f5" stroke="#e0e0e0" stroke-width="0.5"/>
<rect x="180" y="180" width="20" height="20" fill="#f5f5f5" stroke="#e0e0e0" stroke-width="0.5"/>
<rect x="200" y="180" width="20" height="20" fill="#f5f5f5" stroke="#e0e0e0" stroke-width="0.5"/>
<rect x="220" y="180" width="20" height="20" fill="#f5f5f5" stroke="#e0e0e0" stroke-width="0.5"/>
<rect x="240" y="180" width="20" height="20" fill="#f5f5f5" stroke="#e0e0e0" stroke-width="0.5"/>
<rect x="260" y="180" width="20" height="20" fill="#f5f5f5" stroke="#e0e0e0" stroke-width="0.5"/>
<rect x="280" y="180" width="20" height="20" fill="#f5f5f5" stroke="#e0e0e0" stroke-width="0.5"/>
<rect x="300" y="180" width="20" height="20" fill="#f5f5f5" stroke="#e0e0e0" stroke-width="0.5"/>
<rect x="320" y="180" width="20" height="20" fill="#f5f5f5" stroke="#e0e0e0" stroke-width="0.5"/>
<rect x="340" y="180" width="20" height="20" fill="#f5f5f5" stroke="#e0e0e0" stroke-width="0.5"/>
<rect x="360" y="180" width="20" height="20" fill="#f5f5f5" stroke="#e0e0e0" stroke-width="0.5"/>
<rect x="380" y="180" width="20" height="20" fill="#f5f5f5" stroke="#e0e0e0" stroke-width="0.5"/>
<rect x="400" y="180" width="20" height="20" fill="#f5f5f5" stroke="#e0e0e0" stroke-width="0.5"/>
<rect x="420" y="180" width="20" height="20" fill="#f5f5f5" stroke="#e0e0e0" stroke-width="0.5"/>
<rect x="440" y="180" width="20" height="20" fill="#f5f5f5" stroke="#e0e0e0" stroke-width="0.5"/>
<rect x="460" y="180" width="20" height="20" fill="#f5f5f5" stroke="#e0e0e0" stroke-width="0.5"/>
<rect x="480" y="180" width="20" height="20" fill="#f5f5f5" stroke="#e0e0e0" stroke-width="0.5"/>
<rect x="500" y="180" width="20" height="20" fill="#f5f5f5" stroke="#e0e0e0" stroke-width="0.5"/>
<rect x="0" y="200" width="20" height="20" fill="#f5f5f5" stroke="#e0e0e0" stroke-width="0.5"/>
<rect x="20" y="200" width="20" height="20" fill="#f5f5f5" stroke="#e0e0e0" stroke-width="0.5"/>
<rect x="40" y="200" width="20" height="20" fill="#f5f5f5" stroke="#e0e0e0" stroke-width="0.5"/>
<rect x="60" y="200" width="20" height="20" fill="#f5f5f5" stroke="#e0e0e0" stroke-width="0.5"/>
<rect x="80" y="200" width="20" height="20" fill="#f5f5f5" stroke="#e0e0e0" stroke-width="0.5"/>
<rect x="100" y="200" width="20" height="20" fill="#f5f5f5" stroke="#e0e0e0" stroke-width="0.5"/>
<rect x="120" y="200" width="20" height="20" fill="#f5f5f5" stroke="#e0e0e0" stroke-width="0.5"/>
<rect x="140" y="200" width="20" height="20" fill="#f5f5f5" stroke="#e0e0e0" stroke-width="0.5"/>
<rect x="160" y="200" width="20" height="20" fill="#f5f5f5" stroke="#e0e0e0" stroke-width="0.5"/>
<rect x="180" y="200" width="20" height="20" fill="#f5f5f5" stroke="#e0e0e0" stroke-width="0.5"/>
<rect x="200" y="200" width="20" height="20" fill="#f5f5f5" stroke="#e0e0e0" stroke-width="0.5"/>
<rect x="220" y="200" width="20" height="20" fill="#f5f5f5" stroke="#e0e0e0" stroke-width="0.5"/>
<rect x="240" y="200" width="20" height="20" fill="#f5f5f5" stroke="#e0e0e0" stroke-width="0.5"/>
<rect x="260" y="200" width="20" height="20" fill="#f5f5f5" stroke="#e0e0e0" stroke-width="0.5"/>
<rect x="280" y="200" width="20" height="20" fill="#f5f5f5" stroke="#e0e0e0" stroke-width="0.5"/>
<rect x="300" y="200" width="20" height="20" fill="#f5f5f5" stroke="#e0e0e0" stroke-width="0.5"/>
<rect x="320" y="200" width="20" height="20" fill="#f5f5f5" stroke="#e0e0e0" stroke-width="0.5"/>
<rect x="340" y="200" width="20" height="20" fill="#f5f5f5" stroke="#e0e0e0" stroke-width="0.5"/>
<rect x="360" y="200" width="20" height="20" fill="#f5f5f5" stroke="#e0e0e0" stroke-width="0.5"/>
<rect x="380" y="200" width="20" height="20" fill="#f5f5f5" stroke="#e0e0e0" stroke-width="0.5"/>
<rect x="400" y="200" width="20" height="20" fill="#f5f5f5" stroke="#e0e0e0" stroke-width="0.5"/>
<rect x="420" y="200" width="20" height="20" fill="#f5f5f5" stroke="#e0e0e0" stroke-width="0.5"/>
<rect x="440" y="200" width="20" height="20" fill="#f5f5f5" stroke="#e0e0e0" stroke-width="0.5"/>
<rect x="460" y="200" width="20" height="20" fill="#f5f5f5" stroke="#e0e0e0" stroke-width="0.5"/>
<rect x="480" y="200" width="20" height="20" fill="#f5f5f5" stroke="#e0e0e0" stroke-width="0.5"/>
<rect x="500" y="200" width="20" height="20" fill="#f5f5f5" stroke="#e0e0e0" stroke-width="0.5"/>
</svg>